<svg width="20" height="20" viewBox="0 0 20 20" fill="none" xmlns="http://www.w3.org/2000/svg">
<g filter="url(#filter0_d_708_8845)">
<path fill-rule="evenodd" clip-rule="evenodd" d="M5 16.5V17C5 17.5523 5.44772 18 6 18H17C17.5523 18 18 17.5523 18 17V6C18 5.44772 17.5523 5 17 5H16.5V15.5C16.5 16.0523 16.0523 16.5 15.5 16.5H5Z" fill="white"/>
<path d="M2 3C2 2.44772 2.44772 2 3 2H14C14.5523 2 15 2.44772 15 3V14C15 14.5523 14.5523 15 14 15H3C2.44772 15 2 14.5523 2 14V3Z" fill="white"/>
</g>
<defs>
<filter id="filter0_d_708_8845" x="1" y="1" width="18" height="18" filterUnits="userSpaceOnUse" color-interpolation-filters="sRGB">
<feFlood flood-opacity="0" result="BackgroundImageFix"/>
<feColorMatrix in="SourceAlpha" type="matrix" values="0 0 0 0 0 0 0 0 0 0 0 0 0 0 0 0 0 0 127 0" result="hardAlpha"/>
<feOffset/>
<feGaussianBlur stdDeviation="0.5"/>
<feComposite in2="hardAlpha" operator="out"/>
<feColorMatrix type="matrix" values="0 0 0 0 0 0 0 0 0 0 0 0 0 0 0 0 0 0 0.25 0"/>
<feBlend mode="normal" in2="BackgroundImageFix" result="effect1_dropShadow_708_8845"/>
<feBlend mode="normal" in="SourceGraphic" in2="effect1_dropShadow_708_8845" result="shape"/>
</filter>
</defs>
</svg>
